<svg width="16" height="16" viewBox="0 0 16 16" fill="none" xmlns="http://www.w3.org/2000/svg">
<g clip-path="url(#clip0)">
<rect width="16" height="16" fill="white"/>
<path d="M11.3334 14V12.6667C11.3334 11.9594 11.0525 11.2811 10.5524 10.781C10.0523 10.281 9.37399 10 8.66675 10H3.33341C2.62617 10 1.94789 10.281 1.4478 10.781C0.9477 11.2811 0.666748 11.9594 0.666748 12.6667V14" stroke="#D66E92" stroke-width="1.5" stroke-linecap="round" stroke-linejoin="round"/>
<path d="M6.00016 7.33333C7.47292 7.33333 8.66683 6.13943 8.66683 4.66667C8.66683 3.19391 7.47292 2 6.00016 2C4.5274 2 3.3335 3.19391 3.3335 4.66667C3.3335 6.13943 4.5274 7.33333 6.00016 7.33333Z" stroke="#D66E92" stroke-width="1.5" stroke-linecap="round" stroke-linejoin="round"/>
<path d="M15.3335 14V12.6667C15.3331 12.0758 15.1364 11.5019 14.7744 11.0349C14.4124 10.5679 13.9056 10.2344 13.3335 10.0867" stroke="#D66E92" stroke-width="1.5" stroke-linecap="round" stroke-linejoin="round"/>
<path d="M10.6667 2.08667C11.2404 2.23354 11.7488 2.56714 12.1118 3.03488C12.4749 3.50262 12.672 4.07789 12.672 4.67C12.672 5.26212 12.4749 5.83739 12.1118 6.30513C11.7488 6.77287 11.2404 7.10647 10.6667 7.25334" stroke="#D66E92" stroke-width="1.5" stroke-linecap="round" stroke-linejoin="round"/>
</g>
<defs>
<clipPath id="clip0">
<rect width="16" height="16" fill="white"/>
</clipPath>
</defs>
</svg>
