<svg width="16" height="14" viewBox="0 0 16 14" fill="none" xmlns="http://www.w3.org/2000/svg">
<path d="M11.3334 13V11.6667C11.3334 10.9594 11.0525 10.2811 10.5524 9.78105C10.0523 9.28095 9.37399 9 8.66675 9H3.33341C2.62617 9 1.94789 9.28095 1.4478 9.78105C0.9477 10.2811 0.666748 10.9594 0.666748 11.6667V13" stroke="white" stroke-width="1.5" stroke-linecap="round" stroke-linejoin="round"/>
<path d="M6.00016 6.33333C7.47292 6.33333 8.66683 5.13943 8.66683 3.66667C8.66683 2.19391 7.47292 1 6.00016 1C4.5274 1 3.3335 2.19391 3.3335 3.66667C3.3335 5.13943 4.5274 6.33333 6.00016 6.33333Z" stroke="white" stroke-width="1.5" stroke-linecap="round" stroke-linejoin="round"/>
<path d="M15.3335 13.0002V11.6669C15.3331 11.0761 15.1364 10.5021 14.7744 10.0351C14.4124 9.56815 13.9056 9.23463 13.3335 9.08691" stroke="white" stroke-width="1.5" stroke-linecap="round" stroke-linejoin="round"/>
<path d="M10.6667 1.08691C11.2404 1.23378 11.7488 1.56738 12.1118 2.03512C12.4749 2.50286 12.672 3.07813 12.672 3.67025C12.672 4.26236 12.4749 4.83763 12.1118 5.30537C11.7488 5.77311 11.2404 6.10671 10.6667 6.25358" stroke="white" stroke-width="1.5" stroke-linecap="round" stroke-linejoin="round"/>
</svg>
