<svg width="16" height="14" viewBox="0 0 16 14" fill="none" xmlns="http://www.w3.org/2000/svg">
<path d="M11.3334 13V11.6667C11.3334 10.9594 11.0525 10.2811 10.5524 9.78105C10.0523 9.28095 9.37399 9 8.66675 9H3.33341C2.62617 9 1.94789 9.28095 1.4478 9.78105C0.9477 10.2811 0.666748 10.9594 0.666748 11.6667V13" stroke="#6186E7" stroke-width="1.5" stroke-linecap="round" stroke-linejoin="round"/>
<path d="M6.00016 6.33333C7.47292 6.33333 8.66683 5.13943 8.66683 3.66667C8.66683 2.19391 7.47292 1 6.00016 1C4.5274 1 3.3335 2.19391 3.3335 3.66667C3.3335 5.13943 4.5274 6.33333 6.00016 6.33333Z" stroke="#6186E7" stroke-width="1.5" stroke-linecap="round" stroke-linejoin="round"/>
<path d="M15.3335 13V11.6667C15.3331 11.0758 15.1364 10.5019 14.7744 10.0349C14.4124 9.56791 13.9056 9.23438 13.3335 9.08667" stroke="#6186E7" stroke-width="1.5" stroke-linecap="round" stroke-linejoin="round"/>
<path d="M10.6667 1.08667C11.2404 1.23354 11.7488 1.56714 12.1118 2.03488C12.4749 2.50262 12.672 3.07789 12.672 3.67C12.672 4.26212 12.4749 4.83739 12.1118 5.30513C11.7488 5.77287 11.2404 6.10647 10.6667 6.25334" stroke="#6186E7" stroke-width="1.5" stroke-linecap="round" stroke-linejoin="round"/>
</svg>
